# Blender 5.0.1
# www.blender.org
mtllib hoverboard.mtl
o Base
v -0.984384 0.260000 -0.510976
v -0.984384 0.340000 -0.510976
v 0.995495 0.340000 -0.488976
v 0.995494 0.260000 -0.488976
v -0.994495 0.340000 -0.501087
v -0.994494 0.260000 -0.501088
v -1.196660 0.260000 -0.307322
v -1.196660 0.340000 -0.307322
v -0.984384 0.340000 -0.510976
v -0.984384 0.260000 -0.510976
v -0.995495 0.340000 0.488963
v -0.995495 0.260000 0.488963
v 0.984383 0.260000 0.510963
v 0.984383 0.340000 0.510963
v 0.995383 0.250000 -0.478977
v 0.995494 0.260000 -0.488976
v 1.005383 0.260000 -0.478866
v 0.984383 0.260000 0.510963
v 0.984495 0.250000 0.500963
v 0.994494 0.260000 0.501074
v -1.005383 0.260000 0.478852
v -0.995384 0.250000 0.478964
v -0.995495 0.260000 0.488963
v -0.984495 0.250000 -0.500976
v -0.994494 0.260000 -0.501088
v -0.984384 0.260000 -0.510976
v 0.995384 0.350000 -0.478976
v 1.005383 0.340000 -0.478865
v 0.995495 0.340000 -0.488976
v 0.994493 0.340000 0.501074
v 0.984494 0.350000 0.500963
v 0.984383 0.340000 0.510963
v -0.995495 0.340000 0.488963
v -0.995384 0.350000 0.478963
v -1.005384 0.340000 0.478852
v -0.984495 0.350000 -0.500976
v -0.984384 0.340000 -0.510976
v -0.994495 0.340000 -0.501087
v 0.984495 0.250000 0.500963
v 1.085755 0.250000 0.388081
v 1.095755 0.260000 0.388192
v 0.994494 0.260000 0.501074
v 1.005383 0.340000 -0.478865
v 1.005383 0.260000 -0.478866
v 0.995494 0.260000 -0.488976
v 0.995495 0.340000 -0.488976
v -0.995384 0.250000 0.478964
v 0.984495 0.250000 0.500963
v 0.984383 0.260000 0.510963
v -0.995495 0.260000 0.488963
v 0.984383 0.340000 0.510963
v 0.984383 0.260000 0.510963
v 0.994494 0.260000 0.501074
v 0.994493 0.340000 0.501074
v -0.984495 0.250000 -0.500976
v -1.186661 0.250000 -0.307211
v -1.196660 0.260000 -0.307322
v -0.994494 0.260000 -0.501088
v -1.005384 0.340000 0.478852
v -1.005383 0.260000 0.478852
v -0.995495 0.260000 0.488963
v -0.995495 0.340000 0.488963
v -0.984495 0.350000 -0.500976
v 0.995384 0.350000 -0.478976
v 0.995495 0.340000 -0.488976
v -0.984384 0.340000 -0.510976
v 0.994493 0.340000 0.501074
v 0.994494 0.260000 0.501074
v 1.095755 0.260000 0.388192
v 1.095755 0.340000 0.388193
v 1.104110 0.340000 -0.363761
v 1.104110 0.260000 -0.363762
v 1.005383 0.260000 -0.478866
v 1.005383 0.340000 -0.478865
v 1.095755 0.340000 0.388193
v 1.095755 0.260000 0.388192
v 1.104110 0.260000 -0.363762
v 1.104110 0.340000 -0.363761
v 1.094111 0.250000 -0.363873
v 0.995383 0.250000 -0.478977
v 1.005383 0.260000 -0.478866
v 1.104110 0.260000 -0.363762
v 1.085755 0.250000 0.388081
v 1.094111 0.250000 -0.363873
v 1.104110 0.260000 -0.363762
v 1.095755 0.260000 0.388192
v -1.193194 0.250000 0.280753
v -0.995384 0.250000 0.478964
v -1.005383 0.260000 0.478852
v -1.203193 0.260000 0.280642
v -1.186661 0.250000 -0.307211
v -1.193194 0.250000 0.280753
v -1.203193 0.260000 0.280642
v -1.196660 0.260000 -0.307322
v -1.203194 0.340000 0.280642
v -1.203193 0.260000 0.280642
v -1.005383 0.260000 0.478852
v -1.005384 0.340000 0.478852
v -1.196660 0.340000 -0.307322
v -1.196660 0.260000 -0.307322
v -1.203193 0.260000 0.280642
v -1.203194 0.340000 0.280642
v 1.094111 0.250000 -0.363873
v 1.085755 0.250000 0.388081
v 0.984495 0.250000 0.500963
v 0.995383 0.250000 -0.478977
v -0.995384 0.250000 0.478964
v -0.984495 0.250000 -0.500976
v -1.186661 0.250000 -0.307211
v -1.193194 0.250000 0.280753
v 1.085755 0.350000 0.388082
v 1.094111 0.350000 -0.363872
v 0.995384 0.350000 -0.478976
v 0.984494 0.350000 0.500963
v -0.984495 0.350000 -0.500976
v -0.995384 0.350000 0.478963
v -1.186661 0.350000 -0.307210
v -1.193194 0.350000 0.280753
v -0.984384 0.260000 -0.510976
v 0.995494 0.260000 -0.488976
v 0.995383 0.250000 -0.478977
v -0.984495 0.250000 -0.500976
v 0.994493 0.340000 0.501074
v 1.095755 0.340000 0.388193
v 1.085755 0.350000 0.388082
v 0.984494 0.350000 0.500963
v -0.995495 0.340000 0.488963
v 0.984383 0.340000 0.510963
v 0.984494 0.350000 0.500963
v -0.995384 0.350000 0.478963
v -0.994495 0.340000 -0.501087
v -1.196660 0.340000 -0.307322
v -1.186661 0.350000 -0.307210
v -0.984495 0.350000 -0.500976
v 1.104110 0.340000 -0.363761
v 1.005383 0.340000 -0.478865
v 0.995384 0.350000 -0.478976
v 1.094111 0.350000 -0.363872
v 1.095755 0.340000 0.388193
v 1.104110 0.340000 -0.363761
v 1.094111 0.350000 -0.363872
v 1.085755 0.350000 0.388082
v -1.203194 0.340000 0.280642
v -1.005384 0.340000 0.478852
v -0.995384 0.350000 0.478963
v -1.193194 0.350000 0.280753
v -1.196660 0.340000 -0.307322
v -1.203194 0.340000 0.280642
v -1.193194 0.350000 0.280753
v -1.186661 0.350000 -0.307210
vn 0.0111 -0.0000 -0.9999
vn -0.6919 -0.0000 -0.7219
vn -0.6920 -0.0000 -0.7219
vn -0.6992 -0.0000 -0.7149
vn -0.6919 -0.0000 -0.7220
vn -0.0111 -0.0000 0.9999
vn 0.5837 -0.5774 -0.5709
vn 0.5709 -0.5773 0.5837
vn -0.5837 -0.5774 0.5709
vn -0.5709 -0.5773 -0.5837
vn 0.5837 0.5774 -0.5709
vn 0.5709 0.5774 0.5837
vn -0.5837 0.5773 0.5709
vn -0.5709 0.5774 -0.5837
vn 0.5950 -0.6009 0.5337
vn 0.5950 -0.6009 0.5338
vn 0.7149 -0.0000 -0.6992
vn -0.0079 -0.7071 0.7071
vn 0.6992 -0.0000 0.7149
vn -0.5669 -0.5734 -0.5915
vn -0.7149 -0.0000 0.6992
vn 0.0079 0.7071 -0.7071
vn 0.7444 -0.0000 0.6678
vn 0.7590 -0.0000 -0.6510
vn 0.9999 -0.0000 0.0111
vn 0.6067 -0.6009 -0.5204
vn 0.7071 -0.7071 0.0079
vn -0.5799 -0.5734 0.5787
vn -0.7071 -0.7071 -0.0079
vn -0.7078 -0.0000 0.7064
vn -0.9999 -0.0000 -0.0111
vn -0.0000 -1.0000 -0.0000
vn -0.0000 1.0000 -0.0000
vn 0.0079 -0.7071 -0.7071
vn 0.5950 0.6009 0.5337
vn -0.0079 0.7071 0.7071
vn -0.5669 0.5734 -0.5915
vn 0.6067 0.6009 -0.5204
vn 0.7071 0.7071 0.0079
vn -0.5799 0.5734 0.5787
vn -0.7071 0.7071 -0.0079
vt 0.900000 0.995000
vt 0.100000 0.995000
vt 0.100000 0.005000
vt 0.900000 0.005000
vt 1.022998 0.144228
vt 0.953273 0.941184
vt 0.627850 0.912713
vt 0.697574 0.115758
vt 1.032960 0.145100
vt 0.963235 0.942056
vt 0.900000 0.995000
vt 0.100000 0.995000
vt 0.100000 0.005000
vt 0.900000 0.005000
vt -0.031713 0.955391
vt -0.032960 0.854900
vt -0.022998 0.855772
vt 0.963235 0.942055
vt 0.944558 1.040804
vt 0.953273 0.941184
vt 0.100000 1.000000
vt 0.000000 0.995000
vt 1.000000 0.995000
vt 0.900000 1.000000
vt 0.000000 0.005000
vt 0.100000 0.000000
vt 0.900000 0.000000
vt 1.000000 0.005000
vt 0.036765 0.057945
vt 0.055442 -0.040804
vt 0.046727 0.058816
vt 1.031713 0.044609
vt 0.619134 1.012333
vt 0.627850 0.912713
vt 1.032960 0.145099
vt 1.022998 0.144228
vt 0.944558 1.040804
vt 0.900000 1.000000
vt 0.000000 0.995000
vt 0.697574 0.115758
vt 0.372151 0.087287
vt 0.302426 0.884242
vt 0.046727 0.058816
vt 0.293710 0.983862
vt -0.022998 0.855772
vt 0.302426 0.884242
vt 0.372150 0.087287
vt 0.883674 1.000000
vt 0.116327 1.000000
vt 0.000000 0.956140
vt 1.000000 0.956140
vt 0.000000 0.087719
vt 1.000000 0.087719
vt 0.800000 0.000000
vt 0.200000 0.000000
vt 0.883673 1.000000
vt 0.116326 1.000000
vt 0.000000 0.956141
vt 1.000000 0.956140
vt 0.000001 0.087719
vt 1.000000 0.087719
vt 0.200001 0.000000
vt 0.800000 0.000000
vt 0.995000 1.000000
vt 0.005000 1.000000
vt 0.005000 0.990000
vt 0.995000 0.990000
vt 0.990000 1.000000
vt 0.663333 1.000000
vt 0.663333 0.995000
vt 0.990000 0.995000
vt 1.000000 0.005000
vt 0.990000 0.005000
vt 0.010000 0.000000
vt 0.336667 0.000000
vt 0.336667 0.005000
vt 0.010000 0.005000
vt 0.336667 1.000000
vt 0.010000 1.000000
vt 0.010000 0.995000
vt 0.336667 0.995000
vt 0.663333 0.000000
vt 0.990000 0.000000
vt 0.663333 0.005000
s 0
usemtl SharedMetalCrude
f 1/1/1 2/2/1 3/3/1
f 4/4/1 1/1/1 3/3/1
f 5/5/2 6/6/2 7/7/2
f 8/8/2 5/5/2 7/7/2
s 1
f 5/5/3 9/9/4 6/6/5
f 9/9/4 10/10/4 6/6/5
s 0
f 11/11/6 12/12/6 13/13/6
f 14/14/6 11/11/6 13/13/6
f 15/15/7 16/16/7 17/17/7
f 18/18/8 19/19/8 20/20/8
f 21/21/9 22/22/9 23/12/9
f 24/23/10 25/24/10 26/1/10
s 1
f 27/25/11 28/26/11 29/3/11
s 0
f 30/27/12 31/28/12 32/14/12
f 33/29/13 34/30/13 35/31/13
f 36/32/14 37/9/14 38/5/14
f 39/19/15 40/33/15 41/34/15
f 42/20/16 39/19/16 41/34/16
f 43/26/17 44/27/17 45/4/17
f 46/3/17 43/26/17 45/4/17
f 47/22/18 48/25/18 49/13/18
f 50/12/18 47/22/18 49/13/18
f 51/35/19 52/18/19 53/20/19
f 54/36/19 51/35/19 53/20/19
f 55/37/20 56/33/20 57/7/20
f 58/6/20 55/37/20 57/7/20
f 59/38/21 60/21/21 61/12/21
f 62/11/21 59/38/21 61/12/21
f 63/39/22 64/25/22 65/3/22
f 66/2/22 63/39/22 65/3/22
f 67/36/23 68/20/23 69/34/23
f 70/40/23 67/36/23 69/34/23
f 71/41/24 72/42/24 73/17/24
f 74/43/24 71/41/24 73/17/24
f 75/40/25 76/34/25 77/42/25
f 78/41/25 75/40/25 77/42/25
f 79/44/26 80/15/26 81/17/26
f 82/42/26 79/44/26 81/17/26
f 83/33/27 84/44/27 85/42/27
f 86/34/27 83/33/27 85/42/27
f 87/44/28 88/15/28 89/45/28
f 90/46/28 87/44/28 89/45/28
f 91/33/29 92/44/29 93/46/29
f 94/7/29 91/33/29 93/46/29
f 95/47/30 96/46/30 97/45/30
f 98/31/30 95/47/30 97/45/30
f 99/8/31 100/7/31 101/46/31
f 102/47/31 99/8/31 101/46/31
usemtl Material.001
f 103/48/32 104/49/32 105/50/32
f 105/50/32 106/51/32 103/48/32
f 105/50/32 107/52/32 106/51/32
f 107/52/32 108/53/32 106/51/32
f 107/52/32 109/54/32 108/53/32
f 107/52/32 110/55/32 109/54/32
f 111/56/33 112/57/33 113/58/33
f 113/58/33 114/59/33 111/56/33
f 113/58/33 115/60/33 114/59/33
f 115/60/33 116/61/33 114/59/33
f 115/60/33 117/62/33 116/61/33
f 117/62/33 118/63/33 116/61/33
f 119/64/34 120/65/34 121/66/34
f 122/67/34 119/64/34 121/66/34
f 123/68/35 124/69/35 125/70/35
f 126/71/35 123/68/35 125/70/35
f 127/72/36 128/23/36 129/71/36
f 130/73/36 127/72/36 129/71/36
f 131/74/37 132/75/37 133/76/37
f 134/77/37 131/74/37 133/76/37
f 135/78/38 136/79/38 137/80/38
f 138/81/38 135/78/38 137/80/38
f 139/69/39 140/78/39 141/81/39
f 142/70/39 139/69/39 141/81/39
f 143/82/40 144/83/40 145/73/40
f 146/84/40 143/82/40 145/73/40
f 147/75/41 148/82/41 149/84/41
f 150/76/41 147/75/41 149/84/41
